# xmcd
#
# Track frame offsets:
#	150
#	16652
#	34241
#	45253
#	60591
#	77466
#	91988
#	106811
#	122497
#	135393
#	148044
#	163839
#	176334
#
# Disc length: 2580 seconds
#
# Revision: 1
# Processed by: cddbd v1.4PL0 Copyright (c) Steve Scherf et al.
# Submitted via: audiograbber 1.80
#
DISCID=940a120d
DTITLE=Коллекция СВ - Московское время (1984)
DYEAR=1900
DGENRE=
TTITLE0=Вот начало
TTITLE1=Лето
TTITLE2=Вот и лето прошло
TTITLE3=Осень
TTITLE4=День продолжается
TTITLE5=Когда на улице темно
TTITLE6=Песочные часы (зима)
TTITLE7=Пили и курили
TTITLE8=Я выдохся
TTITLE9=Весна
TTITLE10=Спешит моя радость
TTITLE11=Джаз данс (JAZZ DANCE)
TTITLE12=Беглец
EXTD=
EXTT0=
EXTT1=
EXTT2=
EXTT3=
EXTT4=
EXTT5=
EXTT6=
EXTT7=
EXTT8=
EXTT9=
EXTT10=
EXTT11=
EXTT12=
PLAYORDER=
